<svg xmlns="http://www.w3.org/2000/svg" viewBox="0 0 1200 630" width="1200" height="630">
  <defs>
    <linearGradient id="bg-grad" x1="0%" y1="0%" x2="100%" y2="100%">
      <stop offset="0%" stop-color="#1a0a2e"/>
      <stop offset="50%" stop-color="#0a0f1e"/>
      <stop offset="100%" stop-color="#0d1b3e"/>
    </linearGradient>
    <filter id="glow-purple">
      <feGaussianBlur stdDeviation="4" result="coloredBlur"/>
      <feMerge>
        <feMergeNode in="coloredBlur"/>
        <feMergeNode in="SourceGraphic"/>
      </feMerge>
    </filter>
    <filter id="glow-blue">
      <feGaussianBlur stdDeviation="4" result="coloredBlur"/>
      <feMerge>
        <feMergeNode in="coloredBlur"/>
        <feMergeNode in="SourceGraphic"/>
      </feMerge>
    </filter>
    <filter id="glow-green">
      <feGaussianBlur stdDeviation="4" result="coloredBlur"/>
      <feMerge>
        <feMergeNode in="coloredBlur"/>
        <feMergeNode in="SourceGraphic"/>
      </feMerge>
    </filter>
    <filter id="glow-amber">
      <feGaussianBlur stdDeviation="4" result="coloredBlur"/>
      <feMerge>
        <feMergeNode in="coloredBlur"/>
        <feMergeNode in="SourceGraphic"/>
      </feMerge>
    </filter>
    <filter id="glow-center">
      <feGaussianBlur stdDeviation="6" result="coloredBlur"/>
      <feMerge>
        <feMergeNode in="coloredBlur"/>
        <feMergeNode in="SourceGraphic"/>
      </feMerge>
    </filter>
  </defs>

  <!-- Background -->
  <rect width="1200" height="630" fill="url(#bg-grad)"/>

  <!-- Grid dots - top left -->
  <g opacity="0.08">
    <circle cx="30" cy="30" r="1.5" fill="white"/>
    <circle cx="50" cy="30" r="1.5" fill="white"/>
    <circle cx="70" cy="30" r="1.5" fill="white"/>
    <circle cx="90" cy="30" r="1.5" fill="white"/>
    <circle cx="110" cy="30" r="1.5" fill="white"/>
    <circle cx="30" cy="50" r="1.5" fill="white"/>
    <circle cx="50" cy="50" r="1.5" fill="white"/>
    <circle cx="70" cy="50" r="1.5" fill="white"/>
    <circle cx="90" cy="50" r="1.5" fill="white"/>
    <circle cx="110" cy="50" r="1.5" fill="white"/>
    <circle cx="30" cy="70" r="1.5" fill="white"/>
    <circle cx="50" cy="70" r="1.5" fill="white"/>
    <circle cx="70" cy="70" r="1.5" fill="white"/>
    <circle cx="90" cy="70" r="1.5" fill="white"/>
    <circle cx="110" cy="70" r="1.5" fill="white"/>
    <circle cx="30" cy="90" r="1.5" fill="white"/>
    <circle cx="50" cy="90" r="1.5" fill="white"/>
    <circle cx="70" cy="90" r="1.5" fill="white"/>
    <circle cx="90" cy="90" r="1.5" fill="white"/>
    <circle cx="110" cy="90" r="1.5" fill="white"/>
  </g>

  <!-- Grid dots - top right -->
  <g opacity="0.08">
    <circle cx="1090" cy="30" r="1.5" fill="white"/>
    <circle cx="1110" cy="30" r="1.5" fill="white"/>
    <circle cx="1130" cy="30" r="1.5" fill="white"/>
    <circle cx="1150" cy="30" r="1.5" fill="white"/>
    <circle cx="1170" cy="30" r="1.5" fill="white"/>
    <circle cx="1090" cy="50" r="1.5" fill="white"/>
    <circle cx="1110" cy="50" r="1.5" fill="white"/>
    <circle cx="1130" cy="50" r="1.5" fill="white"/>
    <circle cx="1150" cy="50" r="1.5" fill="white"/>
    <circle cx="1170" cy="50" r="1.5" fill="white"/>
    <circle cx="1090" cy="70" r="1.5" fill="white"/>
    <circle cx="1110" cy="70" r="1.5" fill="white"/>
    <circle cx="1130" cy="70" r="1.5" fill="white"/>
    <circle cx="1150" cy="70" r="1.5" fill="white"/>
    <circle cx="1170" cy="70" r="1.5" fill="white"/>
    <circle cx="1090" cy="90" r="1.5" fill="white"/>
    <circle cx="1110" cy="90" r="1.5" fill="white"/>
    <circle cx="1130" cy="90" r="1.5" fill="white"/>
    <circle cx="1150" cy="90" r="1.5" fill="white"/>
    <circle cx="1170" cy="90" r="1.5" fill="white"/>
  </g>

  <!-- Grid dots - bottom left -->
  <g opacity="0.08">
    <circle cx="30" cy="520" r="1.5" fill="white"/>
    <circle cx="50" cy="520" r="1.5" fill="white"/>
    <circle cx="70" cy="520" r="1.5" fill="white"/>
    <circle cx="90" cy="520" r="1.5" fill="white"/>
    <circle cx="110" cy="520" r="1.5" fill="white"/>
    <circle cx="30" cy="540" r="1.5" fill="white"/>
    <circle cx="50" cy="540" r="1.5" fill="white"/>
    <circle cx="70" cy="540" r="1.5" fill="white"/>
    <circle cx="90" cy="540" r="1.5" fill="white"/>
    <circle cx="110" cy="540" r="1.5" fill="white"/>
  </g>

  <!-- Grid dots - bottom right -->
  <g opacity="0.08">
    <circle cx="1090" cy="520" r="1.5" fill="white"/>
    <circle cx="1110" cy="520" r="1.5" fill="white"/>
    <circle cx="1130" cy="520" r="1.5" fill="white"/>
    <circle cx="1150" cy="520" r="1.5" fill="white"/>
    <circle cx="1170" cy="520" r="1.5" fill="white"/>
    <circle cx="1090" cy="540" r="1.5" fill="white"/>
    <circle cx="1110" cy="540" r="1.5" fill="white"/>
    <circle cx="1130" cy="540" r="1.5" fill="white"/>
    <circle cx="1150" cy="540" r="1.5" fill="white"/>
    <circle cx="1170" cy="540" r="1.5" fill="white"/>
  </g>

  <!-- Background radar/spider chart -->
  <g transform="translate(600, 260)" opacity="0.12">
    <!-- Pentagon outlines for radar chart -->
    <polygon points="0,-160 152,-49 94,129 -94,129 -152,-49" fill="none" stroke="white" stroke-width="1"/>
    <polygon points="0,-120 114,-37 71,97 -71,97 -114,-37" fill="none" stroke="white" stroke-width="0.7"/>
    <polygon points="0,-80 76,-25 47,65 -47,65 -76,-25" fill="none" stroke="white" stroke-width="0.5"/>
    <polygon points="0,-40 38,-12 24,32 -24,32 -38,-12" fill="none" stroke="white" stroke-width="0.3"/>
    <!-- Axes -->
    <line x1="0" y1="0" x2="0" y2="-160" stroke="white" stroke-width="0.5"/>
    <line x1="0" y1="0" x2="152" y2="-49" stroke="white" stroke-width="0.5"/>
    <line x1="0" y1="0" x2="94" y2="129" stroke="white" stroke-width="0.5"/>
    <line x1="0" y1="0" x2="-94" y2="129" stroke="white" stroke-width="0.5"/>
    <line x1="0" y1="0" x2="-152" y2="-49" stroke="white" stroke-width="0.5"/>
    <!-- Dimension labels -->
    <text x="0" y="-170" font-family="system-ui" font-size="10" fill="white" text-anchor="middle" opacity="0.6">协作</text>
    <text x="162" y="-45" font-family="system-ui" font-size="10" fill="white" text-anchor="start" opacity="0.6">导出</text>
    <text x="100" y="145" font-family="system-ui" font-size="10" fill="white" text-anchor="start" opacity="0.6">模板</text>
    <text x="-110" y="145" font-family="system-ui" font-size="10" fill="white" text-anchor="end" opacity="0.6">安全</text>
    <text x="-166" y="-45" font-family="system-ui" font-size="10" fill="white" text-anchor="end" opacity="0.6">生态</text>
  </g>

  <!-- Quadrant dividers -->
  <line x1="600" y1="50" x2="600" y2="490" stroke="white" stroke-width="0.5" opacity="0.1"/>
  <line x1="200" y1="260" x2="1000" y2="260" stroke="white" stroke-width="0.5" opacity="0.1"/>

  <!-- Center comparison diamond -->
  <g filter="url(#glow-center)" transform="translate(600, 260)">
    <rect x="-25" y="-25" width="50" height="50" rx="4" fill="#0a0f1e" stroke="white" stroke-width="1.5" opacity="0.8" transform="rotate(45, 0, 0)"/>
    <!-- Balance/scale icon -->
    <line x1="0" y1="-12" x2="0" y2="12" stroke="white" stroke-width="1.5" opacity="0.7"/>
    <line x1="-14" y1="-6" x2="14" y2="-6" stroke="white" stroke-width="1.5" opacity="0.7"/>
    <path d="M-14 -6 L-18 4 L-10 4 Z" fill="none" stroke="white" stroke-width="1" opacity="0.6"/>
    <path d="M14 -6 L18 4 L10 4 Z" fill="none" stroke="white" stroke-width="1" opacity="0.6"/>
    <circle cx="0" cy="14" r="3" fill="none" stroke="white" stroke-width="1" opacity="0.5"/>
  </g>

  <!-- Quadrant 1: Shimo (top-left, purple) -->
  <g filter="url(#glow-purple)">
    <!-- Platform icon -->
    <rect x="320" y="100" width="60" height="60" rx="12" fill="#667eea" opacity="0.12" stroke="#667eea" stroke-width="2"/>
    <!-- Pen/writing icon -->
    <path d="M340 140 L360 110 L366 116 L346 146 Z" fill="none" stroke="#667eea" stroke-width="1.5"/>
    <line x1="340" y1="148" x2="352" y2="148" stroke="#667eea" stroke-width="1.5"/>
    <!-- Name -->
    <text x="350" y="180" font-family="system-ui" font-size="16" fill="#667eea" text-anchor="middle" font-weight="500">石墨文档</text>
    <!-- Feature icons -->
    <g transform="translate(290, 200)">
      <!-- Export icon -->
      <rect x="0" y="0" width="28" height="22" rx="3" fill="none" stroke="#667eea" stroke-width="1" opacity="0.6"/>
      <path d="M14 4 L14 14 M10 10 L14 15 L18 10" stroke="#667eea" stroke-width="1" fill="none" opacity="0.6"/>
      <text x="34" y="16" font-family="system-ui" font-size="11" fill="#667eea" opacity="0.7">批量导出</text>
    </g>
    <g transform="translate(290, 232)">
      <!-- Format icon -->
      <rect x="0" y="0" width="28" height="22" rx="3" fill="none" stroke="#667eea" stroke-width="1" opacity="0.6"/>
      <text x="14" y="16" font-family="system-ui" font-size="9" fill="#667eea" text-anchor="middle" opacity="0.6">MD</text>
      <text x="34" y="16" font-family="system-ui" font-size="11" fill="#667eea" opacity="0.7">多格式</text>
    </g>
  </g>

  <!-- Quadrant 2: Feishu (top-right, blue) -->
  <g filter="url(#glow-blue)">
    <!-- Platform icon -->
    <rect x="820" y="100" width="60" height="60" rx="12" fill="#38bdf8" opacity="0.12" stroke="#38bdf8" stroke-width="2"/>
    <!-- Bird icon -->
    <path d="M835 140 Q835 120 850 115 Q860 120 858 135 Q865 125 862 118 Q870 122 865 138 L855 145 Z" fill="none" stroke="#38bdf8" stroke-width="1.5"/>
    <!-- Name -->
    <text x="850" y="180" font-family="system-ui" font-size="16" fill="#38bdf8" text-anchor="middle" font-weight="500">飞书文档</text>
    <!-- Feature icons -->
    <g transform="translate(790, 200)">
      <!-- Team icon -->
      <circle cx="10" cy="6" r="5" fill="none" stroke="#38bdf8" stroke-width="1" opacity="0.6"/>
      <circle cx="22" cy="6" r="5" fill="none" stroke="#38bdf8" stroke-width="1" opacity="0.6"/>
      <path d="M2 18 Q2 12 10 12 Q18 12 18 18" fill="none" stroke="#38bdf8" stroke-width="1" opacity="0.6"/>
      <text x="34" y="16" font-family="system-ui" font-size="11" fill="#38bdf8" opacity="0.7">团队协作</text>
    </g>
    <g transform="translate(790, 232)">
      <!-- Integration icon -->
      <rect x="0" y="0" width="28" height="22" rx="3" fill="none" stroke="#38bdf8" stroke-width="1" opacity="0.6"/>
      <circle cx="14" cy="11" r="5" fill="none" stroke="#38bdf8" stroke-width="1" opacity="0.6"/>
      <line x1="14" y1="6" x2="14" y2="16" stroke="#38bdf8" stroke-width="1" opacity="0.5"/>
      <line x1="9" y1="11" x2="19" y2="11" stroke="#38bdf8" stroke-width="1" opacity="0.5"/>
      <text x="34" y="16" font-family="system-ui" font-size="11" fill="#38bdf8" opacity="0.7">生态集成</text>
    </g>
  </g>

  <!-- Quadrant 3: Tencent (bottom-left, green) -->
  <g filter="url(#glow-green)">
    <!-- Platform icon -->
    <rect x="320" y="310" width="60" height="60" rx="12" fill="#4ade80" opacity="0.12" stroke="#4ade80" stroke-width="2"/>
    <!-- T icon -->
    <text x="350" y="350" font-family="system-ui" font-size="28" fill="#4ade80" text-anchor="middle" font-weight="700" opacity="0.8">T</text>
    <!-- Name -->
    <text x="350" y="390" font-family="system-ui" font-size="16" fill="#4ade80" text-anchor="middle" font-weight="500">腾讯文档</text>
    <!-- Feature icons -->
    <g transform="translate(290, 405)">
      <!-- WeChat icon -->
      <circle cx="12" cy="10" r="9" fill="none" stroke="#4ade80" stroke-width="1" opacity="0.6"/>
      <circle cx="8" cy="8" r="1.5" fill="#4ade80" opacity="0.5"/>
      <circle cx="16" cy="8" r="1.5" fill="#4ade80" opacity="0.5"/>
      <text x="28" y="14" font-family="system-ui" font-size="11" fill="#4ade80" opacity="0.7">微信互通</text>
    </g>
    <g transform="translate(290, 435)">
      <!-- Cloud icon -->
      <path d="M6 16 Q0 16 0 12 Q0 8 5 8 Q6 4 12 4 Q18 4 20 8 Q24 8 24 12 Q24 16 20 16 Z" fill="none" stroke="#4ade80" stroke-width="1" opacity="0.6"/>
      <text x="30" y="14" font-family="system-ui" font-size="11" fill="#4ade80" opacity="0.7">在线编辑</text>
    </g>
  </g>

  <!-- Quadrant 4: Yuque (bottom-right, amber) -->
  <g filter="url(#glow-amber)">
    <!-- Platform icon -->
    <rect x="820" y="310" width="60" height="60" rx="12" fill="#fbbf24" opacity="0.12" stroke="#fbbf24" stroke-width="2"/>
    <!-- Book icon -->
    <path d="M835 325 L850 328 L865 325 L865 355 L850 358 L835 355 Z" fill="none" stroke="#fbbf24" stroke-width="1.5"/>
    <line x1="850" y1="328" x2="850" y2="358" stroke="#fbbf24" stroke-width="1"/>
    <!-- Name -->
    <text x="850" y="390" font-family="system-ui" font-size="16" fill="#fbbf24" text-anchor="middle" font-weight="500">语雀文档</text>
    <!-- Feature icons -->
    <g transform="translate(790, 405)">
      <!-- Knowledge base icon -->
      <rect x="0" y="2" width="20" height="16" rx="2" fill="none" stroke="#fbbf24" stroke-width="1" opacity="0.6"/>
      <line x1="5" y1="7" x2="15" y2="7" stroke="#fbbf24" stroke-width="0.8" opacity="0.5"/>
      <line x1="5" y1="11" x2="13" y2="11" stroke="#fbbf24" stroke-width="0.8" opacity="0.5"/>
      <line x1="5" y1="15" x2="11" y2="15" stroke="#fbbf24" stroke-width="0.8" opacity="0.5"/>
      <text x="26" y="14" font-family="system-ui" font-size="11" fill="#fbbf24" opacity="0.7">知识库</text>
    </g>
    <g transform="translate(790, 435)">
      <!-- Markdown icon -->
      <rect x="0" y="0" width="24" height="18" rx="3" fill="none" stroke="#fbbf24" stroke-width="1" opacity="0.6"/>
      <text x="12" y="14" font-family="system-ui" font-size="8" fill="#fbbf24" text-anchor="middle" opacity="0.6">MD</text>
      <text x="30" y="13" font-family="system-ui" font-size="11" fill="#fbbf24" opacity="0.7">开发者友好</text>
    </g>
  </g>

  <!-- Decorative corner elements -->
  <rect x="160" y="60" width="20" height="20" rx="2" fill="none" stroke="#667eea" stroke-width="1" opacity="0.15" transform="rotate(45, 170, 70)"/>
  <rect x="1020" y="60" width="20" height="20" rx="2" fill="none" stroke="#38bdf8" stroke-width="1" opacity="0.15" transform="rotate(45, 1030, 70)"/>
  <circle cx="170" cy="460" r="12" fill="none" stroke="#4ade80" stroke-width="1" opacity="0.12"/>
  <circle cx="1040" cy="460" r="12" fill="none" stroke="#fbbf24" stroke-width="1" opacity="0.12"/>

  <!-- Title -->
  <text x="600" y="568" font-family="system-ui" font-size="27" fill="white" text-anchor="middle" font-weight="600">2026 国产在线文档工具对比</text>
  <!-- Subtitle -->
  <text x="600" y="600" font-family="system-ui" font-size="15" fill="#94a3b8" text-anchor="middle">石墨 vs 飞书 vs 腾讯 vs 语雀</text>
</svg>