<svg xmlns="http://www.w3.org/2000/svg" viewBox="0 0 1200 630" width="1200" height="630">
  <defs>
    <linearGradient id="bg-grad" x1="0%" y1="0%" x2="100%" y2="100%">
      <stop offset="0%" stop-color="#1a0a2e"/>
      <stop offset="50%" stop-color="#0a0f1e"/>
      <stop offset="100%" stop-color="#0d1b3e"/>
    </linearGradient>
    <filter id="glow-purple">
      <feGaussianBlur stdDeviation="5" result="coloredBlur"/>
      <feMerge>
        <feMergeNode in="coloredBlur"/>
        <feMergeNode in="SourceGraphic"/>
      </feMerge>
    </filter>
    <filter id="glow-blue">
      <feGaussianBlur stdDeviation="4" result="coloredBlur"/>
      <feMerge>
        <feMergeNode in="coloredBlur"/>
        <feMergeNode in="SourceGraphic"/>
      </feMerge>
    </filter>
    <filter id="glow-green">
      <feGaussianBlur stdDeviation="4" result="coloredBlur"/>
      <feMerge>
        <feMergeNode in="coloredBlur"/>
        <feMergeNode in="SourceGraphic"/>
      </feMerge>
    </filter>
    <filter id="glow-amber">
      <feGaussianBlur stdDeviation="4" result="coloredBlur"/>
      <feMerge>
        <feMergeNode in="coloredBlur"/>
        <feMergeNode in="SourceGraphic"/>
      </feMerge>
    </filter>
    <filter id="glow-red">
      <feGaussianBlur stdDeviation="4" result="coloredBlur"/>
      <feMerge>
        <feMergeNode in="coloredBlur"/>
        <feMergeNode in="SourceGraphic"/>
      </feMerge>
    </filter>
  </defs>

  <!-- Background -->
  <rect width="1200" height="630" fill="url(#bg-grad)"/>

  <!-- Grid dots - top left -->
  <g opacity="0.08">
    <circle cx="30" cy="30" r="1.5" fill="white"/>
    <circle cx="50" cy="30" r="1.5" fill="white"/>
    <circle cx="70" cy="30" r="1.5" fill="white"/>
    <circle cx="90" cy="30" r="1.5" fill="white"/>
    <circle cx="110" cy="30" r="1.5" fill="white"/>
    <circle cx="30" cy="50" r="1.5" fill="white"/>
    <circle cx="50" cy="50" r="1.5" fill="white"/>
    <circle cx="70" cy="50" r="1.5" fill="white"/>
    <circle cx="90" cy="50" r="1.5" fill="white"/>
    <circle cx="110" cy="50" r="1.5" fill="white"/>
    <circle cx="30" cy="70" r="1.5" fill="white"/>
    <circle cx="50" cy="70" r="1.5" fill="white"/>
    <circle cx="70" cy="70" r="1.5" fill="white"/>
    <circle cx="90" cy="70" r="1.5" fill="white"/>
    <circle cx="110" cy="70" r="1.5" fill="white"/>
    <circle cx="30" cy="90" r="1.5" fill="white"/>
    <circle cx="50" cy="90" r="1.5" fill="white"/>
    <circle cx="70" cy="90" r="1.5" fill="white"/>
    <circle cx="90" cy="90" r="1.5" fill="white"/>
    <circle cx="110" cy="90" r="1.5" fill="white"/>
  </g>

  <!-- Grid dots - top right -->
  <g opacity="0.08">
    <circle cx="1090" cy="30" r="1.5" fill="white"/>
    <circle cx="1110" cy="30" r="1.5" fill="white"/>
    <circle cx="1130" cy="30" r="1.5" fill="white"/>
    <circle cx="1150" cy="30" r="1.5" fill="white"/>
    <circle cx="1170" cy="30" r="1.5" fill="white"/>
    <circle cx="1090" cy="50" r="1.5" fill="white"/>
    <circle cx="1110" cy="50" r="1.5" fill="white"/>
    <circle cx="1130" cy="50" r="1.5" fill="white"/>
    <circle cx="1150" cy="50" r="1.5" fill="white"/>
    <circle cx="1170" cy="50" r="1.5" fill="white"/>
    <circle cx="1090" cy="70" r="1.5" fill="white"/>
    <circle cx="1110" cy="70" r="1.5" fill="white"/>
    <circle cx="1130" cy="70" r="1.5" fill="white"/>
    <circle cx="1150" cy="70" r="1.5" fill="white"/>
    <circle cx="1170" cy="70" r="1.5" fill="white"/>
    <circle cx="1090" cy="90" r="1.5" fill="white"/>
    <circle cx="1110" cy="90" r="1.5" fill="white"/>
    <circle cx="1130" cy="90" r="1.5" fill="white"/>
    <circle cx="1150" cy="90" r="1.5" fill="white"/>
    <circle cx="1170" cy="90" r="1.5" fill="white"/>
  </g>

  <!-- Grid dots - bottom left -->
  <g opacity="0.08">
    <circle cx="30" cy="520" r="1.5" fill="white"/>
    <circle cx="50" cy="520" r="1.5" fill="white"/>
    <circle cx="70" cy="520" r="1.5" fill="white"/>
    <circle cx="90" cy="520" r="1.5" fill="white"/>
    <circle cx="110" cy="520" r="1.5" fill="white"/>
    <circle cx="30" cy="540" r="1.5" fill="white"/>
    <circle cx="50" cy="540" r="1.5" fill="white"/>
    <circle cx="70" cy="540" r="1.5" fill="white"/>
    <circle cx="90" cy="540" r="1.5" fill="white"/>
    <circle cx="110" cy="540" r="1.5" fill="white"/>
  </g>

  <!-- Grid dots - bottom right -->
  <g opacity="0.08">
    <circle cx="1090" cy="520" r="1.5" fill="white"/>
    <circle cx="1110" cy="520" r="1.5" fill="white"/>
    <circle cx="1130" cy="520" r="1.5" fill="white"/>
    <circle cx="1150" cy="520" r="1.5" fill="white"/>
    <circle cx="1170" cy="520" r="1.5" fill="white"/>
    <circle cx="1090" cy="540" r="1.5" fill="white"/>
    <circle cx="1110" cy="540" r="1.5" fill="white"/>
    <circle cx="1130" cy="540" r="1.5" fill="white"/>
    <circle cx="1150" cy="540" r="1.5" fill="white"/>
    <circle cx="1170" cy="540" r="1.5" fill="white"/>
  </g>

  <!-- Platform 1: Shimo (purple) -->
  <g filter="url(#glow-purple)" transform="translate(160, 180)">
    <!-- Platform square -->
    <rect x="0" y="0" width="70" height="70" rx="14" fill="#667eea" opacity="0.15" stroke="#667eea" stroke-width="2"/>
    <!-- Document icon inside -->
    <rect x="20" y="12" width="30" height="38" rx="3" fill="none" stroke="#667eea" stroke-width="1.5"/>
    <line x1="26" y1="22" x2="44" y2="22" stroke="#667eea" stroke-width="1.2" opacity="0.7"/>
    <line x1="26" y1="30" x2="40" y2="30" stroke="#667eea" stroke-width="1.2" opacity="0.7"/>
    <line x1="26" y1="38" x2="42" y2="38" stroke="#667eea" stroke-width="1.2" opacity="0.7"/>
    <!-- Platform name -->
    <text x="35" y="92" font-family="system-ui" font-size="14" fill="#667eea" text-anchor="middle" opacity="0.9">石墨</text>
    <!-- Download arrow -->
    <g transform="translate(35, 130)">
      <line x1="0" y1="0" x2="0" y2="50" stroke="#667eea" stroke-width="2" stroke-dasharray="4,3" opacity="0.6"/>
      <path d="M0 50 L-6 40 L6 40 Z" fill="#667eea" opacity="0.7"/>
    </g>
  </g>

  <!-- Platform 2: Feishu (blue) -->
  <g filter="url(#glow-blue)" transform="translate(370, 180)">
    <!-- Platform circle -->
    <rect x="0" y="0" width="70" height="70" rx="14" fill="#38bdf8" opacity="0.15" stroke="#38bdf8" stroke-width="2"/>
    <!-- Bird/feather icon -->
    <path d="M25 45 Q20 30 35 18 Q45 25 42 38 Q50 28 48 20 Q55 25 50 40 L42 48 Z" fill="none" stroke="#38bdf8" stroke-width="1.5"/>
    <!-- Platform name -->
    <text x="35" y="92" font-family="system-ui" font-size="14" fill="#38bdf8" text-anchor="middle" opacity="0.9">飞书</text>
    <!-- Download arrow -->
    <g transform="translate(35, 130)">
      <line x1="0" y1="0" x2="0" y2="50" stroke="#38bdf8" stroke-width="2" stroke-dasharray="4,3" opacity="0.6"/>
      <path d="M0 50 L-6 40 L6 40 Z" fill="#38bdf8" opacity="0.7"/>
    </g>
  </g>

  <!-- Platform 3: Tencent (green) -->
  <g filter="url(#glow-green)" transform="translate(580, 180)">
    <!-- Platform square -->
    <rect x="0" y="0" width="70" height="70" rx="14" fill="#4ade80" opacity="0.15" stroke="#4ade80" stroke-width="2"/>
    <!-- T icon -->
    <text x="35" y="48" font-family="system-ui" font-size="32" fill="#4ade80" text-anchor="middle" font-weight="700" opacity="0.8">T</text>
    <!-- Platform name -->
    <text x="35" y="92" font-family="system-ui" font-size="14" fill="#4ade80" text-anchor="middle" opacity="0.9">腾讯</text>
    <!-- Download arrow -->
    <g transform="translate(35, 130)">
      <line x1="0" y1="0" x2="0" y2="50" stroke="#4ade80" stroke-width="2" stroke-dasharray="4,3" opacity="0.6"/>
      <path d="M0 50 L-6 40 L6 40 Z" fill="#4ade80" opacity="0.7"/>
    </g>
  </g>

  <!-- Platform 4: Yuque (amber) -->
  <g filter="url(#glow-amber)" transform="translate(790, 180)">
    <!-- Platform square -->
    <rect x="0" y="0" width="70" height="70" rx="14" fill="#fbbf24" opacity="0.15" stroke="#fbbf24" stroke-width="2"/>
    <!-- Book icon -->
    <path d="M20 18 L35 22 L50 18 L50 48 L35 52 L20 48 Z" fill="none" stroke="#fbbf24" stroke-width="1.5"/>
    <line x1="35" y1="22" x2="35" y2="52" stroke="#fbbf24" stroke-width="1.2"/>
    <!-- Platform name -->
    <text x="35" y="92" font-family="system-ui" font-size="14" fill="#fbbf24" text-anchor="middle" opacity="0.9">语雀</text>
    <!-- Download arrow -->
    <g transform="translate(35, 130)">
      <line x1="0" y1="0" x2="0" y2="50" stroke="#fbbf24" stroke-width="2" stroke-dasharray="4,3" opacity="0.6"/>
      <path d="M0 50 L-6 40 L6 40 Z" fill="#fbbf24" opacity="0.7"/>
    </g>
  </g>

  <!-- Platform 5: Notion (red) -->
  <g filter="url(#glow-red)" transform="translate(1000, 180)">
    <!-- Platform square -->
    <rect x="0" y="0" width="70" height="70" rx="14" fill="#f87171" opacity="0.15" stroke="#f87171" stroke-width="2"/>
    <!-- N icon -->
    <text x="35" y="48" font-family="system-ui" font-size="30" fill="#f87171" text-anchor="middle" font-weight="700" opacity="0.8">N</text>
    <!-- Platform name -->
    <text x="35" y="92" font-family="system-ui" font-size="14" fill="#f87171" text-anchor="middle" opacity="0.9">Notion</text>
    <!-- Download arrow -->
    <g transform="translate(35, 130)">
      <line x1="0" y1="0" x2="0" y2="50" stroke="#f87171" stroke-width="2" stroke-dasharray="4,3" opacity="0.6"/>
      <path d="M0 50 L-6 40 L6 40 Z" fill="#f87171" opacity="0.7"/>
    </g>
  </g>

  <!-- Local storage icons at bottom -->
  <!-- Storage device -->
  <g transform="translate(160, 380)">
    <rect x="5" y="0" width="60" height="40" rx="6" fill="none" stroke="white" stroke-width="1.5" opacity="0.4"/>
    <circle cx="55" cy="20" r="4" fill="none" stroke="white" stroke-width="1" opacity="0.4"/>
    <line x1="15" y1="28" x2="40" y2="28" stroke="white" stroke-width="1" opacity="0.3"/>
  </g>
  <g transform="translate(370, 380)">
    <rect x="5" y="0" width="60" height="40" rx="6" fill="none" stroke="white" stroke-width="1.5" opacity="0.4"/>
    <circle cx="55" cy="20" r="4" fill="none" stroke="white" stroke-width="1" opacity="0.4"/>
    <line x1="15" y1="28" x2="40" y2="28" stroke="white" stroke-width="1" opacity="0.3"/>
  </g>
  <g transform="translate(580, 380)">
    <rect x="5" y="0" width="60" height="40" rx="6" fill="none" stroke="white" stroke-width="1.5" opacity="0.4"/>
    <circle cx="55" cy="20" r="4" fill="none" stroke="white" stroke-width="1" opacity="0.4"/>
    <line x1="15" y1="28" x2="40" y2="28" stroke="white" stroke-width="1" opacity="0.3"/>
  </g>
  <g transform="translate(790, 380)">
    <rect x="5" y="0" width="60" height="40" rx="6" fill="none" stroke="white" stroke-width="1.5" opacity="0.4"/>
    <circle cx="55" cy="20" r="4" fill="none" stroke="white" stroke-width="1" opacity="0.4"/>
    <line x1="15" y1="28" x2="40" y2="28" stroke="white" stroke-width="1" opacity="0.3"/>
  </g>
  <g transform="translate(1000, 380)">
    <rect x="5" y="0" width="60" height="40" rx="6" fill="none" stroke="white" stroke-width="1.5" opacity="0.4"/>
    <circle cx="55" cy="20" r="4" fill="none" stroke="white" stroke-width="1" opacity="0.4"/>
    <line x1="15" y1="28" x2="40" y2="28" stroke="white" stroke-width="1" opacity="0.3"/>
  </g>

  <!-- VS / comparison separators -->
  <g opacity="0.3">
    <text x="300" y="220" font-family="system-ui" font-size="16" fill="white" text-anchor="middle">vs</text>
    <text x="510" y="220" font-family="system-ui" font-size="16" fill="white" text-anchor="middle">vs</text>
    <text x="720" y="220" font-family="system-ui" font-size="16" fill="white" text-anchor="middle">vs</text>
    <text x="930" y="220" font-family="system-ui" font-size="16" fill="white" text-anchor="middle">vs</text>
  </g>

  <!-- Decorative horizontal line -->
  <line x1="150" y1="460" x2="1050" y2="460" stroke="white" stroke-width="0.5" opacity="0.1"/>

  <!-- Decorative elements -->
  <circle cx="100" cy="300" r="25" fill="none" stroke="#667eea" stroke-width="1" opacity="0.08"/>
  <circle cx="1120" cy="350" r="20" fill="none" stroke="#38bdf8" stroke-width="1" opacity="0.08"/>
  <rect x="1080" cy="450" width="20" height="20" rx="2" fill="none" stroke="#fbbf24" stroke-width="1" opacity="0.1" transform="rotate(45, 1090, 460)"/>

  <!-- Title -->
  <text x="600" y="568" font-family="system-ui" font-size="27" fill="white" text-anchor="middle" font-weight="600">在线文档批量导出工具大全</text>
  <!-- Subtitle -->
  <text x="600" y="600" font-family="system-ui" font-size="15" fill="#94a3b8" text-anchor="middle">石墨 · 飞书 · 腾讯 · 语雀 · 2026评测</text>
</svg>