<svg xmlns="http://www.w3.org/2000/svg" viewBox="0 0 1200 630" width="1200" height="630">
  <defs>
    <linearGradient id="bg-grad" x1="0%" y1="0%" x2="100%" y2="100%">
      <stop offset="0%" stop-color="#1a0a2e"/>
      <stop offset="50%" stop-color="#0a0f1e"/>
      <stop offset="100%" stop-color="#0d1b3e"/>
    </linearGradient>
    <filter id="glow-blue">
      <feGaussianBlur stdDeviation="4" result="coloredBlur"/>
      <feMerge>
        <feMergeNode in="coloredBlur"/>
        <feMergeNode in="SourceGraphic"/>
      </feMerge>
    </filter>
    <filter id="glow-green">
      <feGaussianBlur stdDeviation="4" result="coloredBlur"/>
      <feMerge>
        <feMergeNode in="coloredBlur"/>
        <feMergeNode in="SourceGraphic"/>
      </feMerge>
    </filter>
    <filter id="glow-purple">
      <feGaussianBlur stdDeviation="6" result="coloredBlur"/>
      <feMerge>
        <feMergeNode in="coloredBlur"/>
        <feMergeNode in="SourceGraphic"/>
      </feMerge>
    </filter>
  </defs>

  <!-- Background -->
  <rect width="1200" height="630" fill="url(#bg-grad)"/>

  <!-- Grid dots - top left -->
  <g opacity="0.08">
    <circle cx="30" cy="30" r="1.5" fill="white"/>
    <circle cx="50" cy="30" r="1.5" fill="white"/>
    <circle cx="70" cy="30" r="1.5" fill="white"/>
    <circle cx="90" cy="30" r="1.5" fill="white"/>
    <circle cx="110" cy="30" r="1.5" fill="white"/>
    <circle cx="30" cy="50" r="1.5" fill="white"/>
    <circle cx="50" cy="50" r="1.5" fill="white"/>
    <circle cx="70" cy="50" r="1.5" fill="white"/>
    <circle cx="90" cy="50" r="1.5" fill="white"/>
    <circle cx="110" cy="50" r="1.5" fill="white"/>
    <circle cx="30" cy="70" r="1.5" fill="white"/>
    <circle cx="50" cy="70" r="1.5" fill="white"/>
    <circle cx="70" cy="70" r="1.5" fill="white"/>
    <circle cx="90" cy="70" r="1.5" fill="white"/>
    <circle cx="110" cy="70" r="1.5" fill="white"/>
    <circle cx="30" cy="90" r="1.5" fill="white"/>
    <circle cx="50" cy="90" r="1.5" fill="white"/>
    <circle cx="70" cy="90" r="1.5" fill="white"/>
    <circle cx="90" cy="90" r="1.5" fill="white"/>
    <circle cx="110" cy="90" r="1.5" fill="white"/>
  </g>

  <!-- Grid dots - top right -->
  <g opacity="0.08">
    <circle cx="1090" cy="30" r="1.5" fill="white"/>
    <circle cx="1110" cy="30" r="1.5" fill="white"/>
    <circle cx="1130" cy="30" r="1.5" fill="white"/>
    <circle cx="1150" cy="30" r="1.5" fill="white"/>
    <circle cx="1170" cy="30" r="1.5" fill="white"/>
    <circle cx="1090" cy="50" r="1.5" fill="white"/>
    <circle cx="1110" cy="50" r="1.5" fill="white"/>
    <circle cx="1130" cy="50" r="1.5" fill="white"/>
    <circle cx="1150" cy="50" r="1.5" fill="white"/>
    <circle cx="1170" cy="50" r="1.5" fill="white"/>
    <circle cx="1090" cy="70" r="1.5" fill="white"/>
    <circle cx="1110" cy="70" r="1.5" fill="white"/>
    <circle cx="1130" cy="70" r="1.5" fill="white"/>
    <circle cx="1150" cy="70" r="1.5" fill="white"/>
    <circle cx="1170" cy="70" r="1.5" fill="white"/>
    <circle cx="1090" cy="90" r="1.5" fill="white"/>
    <circle cx="1110" cy="90" r="1.5" fill="white"/>
    <circle cx="1130" cy="90" r="1.5" fill="white"/>
    <circle cx="1150" cy="90" r="1.5" fill="white"/>
    <circle cx="1170" cy="90" r="1.5" fill="white"/>
  </g>

  <!-- Grid dots - bottom left -->
  <g opacity="0.08">
    <circle cx="30" cy="520" r="1.5" fill="white"/>
    <circle cx="50" cy="520" r="1.5" fill="white"/>
    <circle cx="70" cy="520" r="1.5" fill="white"/>
    <circle cx="90" cy="520" r="1.5" fill="white"/>
    <circle cx="110" cy="520" r="1.5" fill="white"/>
    <circle cx="30" cy="540" r="1.5" fill="white"/>
    <circle cx="50" cy="540" r="1.5" fill="white"/>
    <circle cx="70" cy="540" r="1.5" fill="white"/>
    <circle cx="90" cy="540" r="1.5" fill="white"/>
    <circle cx="110" cy="540" r="1.5" fill="white"/>
  </g>

  <!-- Grid dots - bottom right -->
  <g opacity="0.08">
    <circle cx="1090" cy="520" r="1.5" fill="white"/>
    <circle cx="1110" cy="520" r="1.5" fill="white"/>
    <circle cx="1130" cy="520" r="1.5" fill="white"/>
    <circle cx="1150" cy="520" r="1.5" fill="white"/>
    <circle cx="1170" cy="520" r="1.5" fill="white"/>
    <circle cx="1090" cy="540" r="1.5" fill="white"/>
    <circle cx="1110" cy="540" r="1.5" fill="white"/>
    <circle cx="1130" cy="540" r="1.5" fill="white"/>
    <circle cx="1150" cy="540" r="1.5" fill="white"/>
    <circle cx="1170" cy="540" r="1.5" fill="white"/>
  </g>

  <!-- Left side: Long scrolling document -->
  <g filter="url(#glow-blue)">
    <!-- Document frame -->
    <rect x="200" y="60" width="180" height="420" rx="8" fill="none" stroke="#38bdf8" stroke-width="2" opacity="0.8"/>
    <!-- Content lines inside document -->
    <rect x="220" y="90" width="120" height="6" rx="3" fill="#38bdf8" opacity="0.6"/>
    <rect x="220" y="110" width="140" height="4" rx="2" fill="#38bdf8" opacity="0.3"/>
    <rect x="220" y="124" width="130" height="4" rx="2" fill="#38bdf8" opacity="0.3"/>
    <rect x="220" y="138" width="100" height="4" rx="2" fill="#38bdf8" opacity="0.3"/>
    <rect x="220" y="158" width="140" height="4" rx="2" fill="#38bdf8" opacity="0.3"/>
    <rect x="220" y="172" width="120" height="4" rx="2" fill="#38bdf8" opacity="0.3"/>
    <rect x="220" y="186" width="135" height="4" rx="2" fill="#38bdf8" opacity="0.3"/>
    <!-- Image placeholder -->
    <rect x="220" y="210" width="140" height="60" rx="4" fill="#38bdf8" opacity="0.15" stroke="#38bdf8" stroke-width="1" stroke-opacity="0.4"/>
    <rect x="220" y="285" width="140" height="4" rx="2" fill="#38bdf8" opacity="0.3"/>
    <rect x="220" y="299" width="110" height="4" rx="2" fill="#38bdf8" opacity="0.3"/>
    <rect x="220" y="313" width="130" height="4" rx="2" fill="#38bdf8" opacity="0.3"/>
    <rect x="220" y="327" width="140" height="4" rx="2" fill="#38bdf8" opacity="0.3"/>
    <rect x="220" y="347" width="100" height="4" rx="2" fill="#38bdf8" opacity="0.3"/>
    <rect x="220" y="361" width="135" height="4" rx="2" fill="#38bdf8" opacity="0.3"/>
    <rect x="220" y="375" width="120" height="4" rx="2" fill="#38bdf8" opacity="0.3"/>
    <rect x="220" y="395" width="140" height="4" rx="2" fill="#38bdf8" opacity="0.3"/>
    <rect x="220" y="409" width="110" height="4" rx="2" fill="#38bdf8" opacity="0.3"/>
    <rect x="220" y="423" width="130" height="4" rx="2" fill="#38bdf8" opacity="0.3"/>
    <rect x="220" y="437" width="90" height="4" rx="2" fill="#38bdf8" opacity="0.3"/>
    <rect x="220" y="451" width="140" height="4" rx="2" fill="#38bdf8" opacity="0.3"/>
  </g>

  <!-- Scroll indicator -->
  <rect x="385" y="80" width="4" height="380" rx="2" fill="#38bdf8" opacity="0.15"/>
  <rect x="385" y="80" width="4" height="120" rx="2" fill="#38bdf8" opacity="0.6"/>
  <!-- Down arrow -->
  <path d="M387 470 L382 460 L392 460 Z" fill="#38bdf8" opacity="0.6"/>

  <!-- Center: Camera/screenshot icon -->
  <g filter="url(#glow-purple)" transform="translate(560, 220)">
    <!-- Camera body -->
    <rect x="0" y="20" width="80" height="55" rx="10" fill="none" stroke="#667eea" stroke-width="2.5"/>
    <!-- Camera lens -->
    <circle cx="40" cy="47" r="16" fill="none" stroke="#667eea" stroke-width="2"/>
    <circle cx="40" cy="47" r="8" fill="#667eea" opacity="0.3"/>
    <!-- Flash -->
    <rect x="20" y="14" width="20" height="10" rx="3" fill="none" stroke="#667eea" stroke-width="1.5"/>
    <!-- Arrow from left to center -->
    <line x1="-100" y1="47" x2="-20" y2="47" stroke="#667eea" stroke-width="1.5" stroke-dasharray="6,4" opacity="0.6"/>
    <path d="M-20 47 L-30 42 L-30 52 Z" fill="#667eea" opacity="0.6"/>
    <!-- Arrow from center to right -->
    <line x1="100" y1="47" x2="180" y2="47" stroke="#667eea" stroke-width="1.5" stroke-dasharray="6,4" opacity="0.6"/>
    <path d="M180 47 L170 42 L170 52 Z" fill="#667eea" opacity="0.6"/>
  </g>

  <!-- Right side: Folder tree -->
  <g filter="url(#glow-green)">
    <!-- Root folder -->
    <g transform="translate(800, 120)">
      <path d="M0 8 L0 2 Q0 0 2 0 L14 0 L18 5 L38 5 Q40 5 40 7 L40 28 Q40 30 38 30 L2 30 Q0 30 0 28 Z" fill="none" stroke="#4ade80" stroke-width="2"/>
      <text x="50" y="20" font-family="system-ui" font-size="14" fill="#4ade80" opacity="0.8">项目文档/</text>
    </g>
    <!-- Level 1 folder 1 -->
    <line x1="820" y1="150" x2="820" y2="175" stroke="#4ade80" stroke-width="1" opacity="0.4"/>
    <line x1="820" y1="175" x2="850" y2="175" stroke="#4ade80" stroke-width="1" opacity="0.4"/>
    <g transform="translate(850, 160)">
      <path d="M0 8 L0 2 Q0 0 2 0 L12 0 L15 4 L32 4 Q34 4 34 6 L34 24 Q34 26 32 26 L2 26 Q0 26 0 24 Z" fill="none" stroke="#4ade80" stroke-width="1.5" opacity="0.8"/>
      <text x="42" y="18" font-family="system-ui" font-size="12" fill="#4ade80" opacity="0.7">设计稿/</text>
    </g>
    <!-- Level 2 file -->
    <line x1="870" y1="186" x2="870" y2="210" stroke="#4ade80" stroke-width="1" opacity="0.3"/>
    <line x1="870" y1="210" x2="900" y2="210" stroke="#4ade80" stroke-width="1" opacity="0.3"/>
    <g transform="translate(900, 200)">
      <rect x="0" y="0" width="24" height="20" rx="2" fill="none" stroke="#4ade80" stroke-width="1" opacity="0.6"/>
      <path d="M0 0 L6 0 L8 3 L0 3 Z" fill="#4ade80" opacity="0.3"/>
      <text x="30" y="14" font-family="system-ui" font-size="11" fill="#4ade80" opacity="0.6">首页.png</text>
    </g>
    <!-- Level 2 file 2 -->
    <line x1="870" y1="210" x2="870" y2="240" stroke="#4ade80" stroke-width="1" opacity="0.3"/>
    <line x1="870" y1="240" x2="900" y2="240" stroke="#4ade80" stroke-width="1" opacity="0.3"/>
    <g transform="translate(900, 230)">
      <rect x="0" y="0" width="24" height="20" rx="2" fill="none" stroke="#4ade80" stroke-width="1" opacity="0.6"/>
      <text x="30" y="14" font-family="system-ui" font-size="11" fill="#4ade80" opacity="0.6">导航.pdf</text>
    </g>
    <!-- Level 1 folder 2 -->
    <line x1="820" y1="175" x2="820" y2="285" stroke="#4ade80" stroke-width="1" opacity="0.4"/>
    <line x1="820" y1="285" x2="850" y2="285" stroke="#4ade80" stroke-width="1" opacity="0.4"/>
    <g transform="translate(850, 270)">
      <path d="M0 8 L0 2 Q0 0 2 0 L12 0 L15 4 L32 4 Q34 4 34 6 L34 24 Q34 26 32 26 L2 26 Q0 26 0 24 Z" fill="none" stroke="#4ade80" stroke-width="1.5" opacity="0.8"/>
      <text x="42" y="18" font-family="system-ui" font-size="12" fill="#4ade80" opacity="0.7">技术文档/</text>
    </g>
    <!-- Level 2 sub-items -->
    <line x1="870" y1="296" x2="870" y2="320" stroke="#4ade80" stroke-width="1" opacity="0.3"/>
    <line x1="870" y1="320" x2="900" y2="320" stroke="#4ade80" stroke-width="1" opacity="0.3"/>
    <g transform="translate(900, 310)">
      <rect x="0" y="0" width="24" height="20" rx="2" fill="none" stroke="#4ade80" stroke-width="1" opacity="0.6"/>
      <text x="30" y="14" font-family="system-ui" font-size="11" fill="#4ade80" opacity="0.6">API文档.md</text>
    </g>
    <line x1="870" y1="320" x2="870" y2="350" stroke="#4ade80" stroke-width="1" opacity="0.3"/>
    <line x1="870" y1="350" x2="900" y2="350" stroke="#4ade80" stroke-width="1" opacity="0.3"/>
    <g transform="translate(900, 340)">
      <rect x="0" y="0" width="24" height="20" rx="2" fill="none" stroke="#4ade80" stroke-width="1" opacity="0.6"/>
      <text x="30" y="14" font-family="system-ui" font-size="11" fill="#4ade80" opacity="0.6">架构.docx</text>
    </g>
    <!-- Level 1 folder 3 -->
    <line x1="820" y1="285" x2="820" y2="395" stroke="#4ade80" stroke-width="1" opacity="0.4"/>
    <line x1="820" y1="395" x2="850" y2="395" stroke="#4ade80" stroke-width="1" opacity="0.4"/>
    <g transform="translate(850, 380)">
      <path d="M0 8 L0 2 Q0 0 2 0 L12 0 L15 4 L32 4 Q34 4 34 6 L34 24 Q34 26 32 26 L2 26 Q0 26 0 24 Z" fill="none" stroke="#4ade80" stroke-width="1.5" opacity="0.8"/>
      <text x="42" y="18" font-family="system-ui" font-size="12" fill="#4ade80" opacity="0.7">会议记录/</text>
    </g>
    <line x1="870" y1="406" x2="870" y2="430" stroke="#4ade80" stroke-width="1" opacity="0.3"/>
    <line x1="870" y1="430" x2="900" y2="430" stroke="#4ade80" stroke-width="1" opacity="0.3"/>
    <g transform="translate(900, 420)">
      <rect x="0" y="0" width="24" height="20" rx="2" fill="none" stroke="#4ade80" stroke-width="1" opacity="0.6"/>
      <text x="30" y="14" font-family="system-ui" font-size="11" fill="#4ade80" opacity="0.6">周会.xlsx</text>
    </g>
  </g>

  <!-- Decorative geometric shapes -->
  <rect x="150" y="500" width="40" height="40" rx="4" fill="none" stroke="#38bdf8" stroke-width="1" opacity="0.15" transform="rotate(45, 170, 520)"/>
  <circle cx="1050" cy="100" r="30" fill="none" stroke="#4ade80" stroke-width="1" opacity="0.1"/>
  <circle cx="1050" cy="100" r="20" fill="none" stroke="#4ade80" stroke-width="1" opacity="0.08"/>

  <!-- Title -->
  <text x="600" y="568" font-family="system-ui" font-size="27" fill="white" text-anchor="middle" font-weight="600">导出长图与文件夹批量下载</text>
  <!-- Subtitle -->
  <text x="600" y="600" font-family="system-ui" font-size="15" fill="#94a3b8" text-anchor="middle">截长图 · 文件夹导出 · 目录结构保留</text>
</svg>